<svg width="39" height="33" viewBox="0 0 39 33" fill="none" xmlns="http://www.w3.org/2000/svg">
<path d="M16.968 1.71999C14.7493 3.768 12.7013 6.24267 10.824 9.144C9.032 12.0453 8.136 14.4773 8.136 16.44C8.136 18.9147 9.672 20.152 12.744 20.152C14.28 20.152 15.3467 20.7067 15.944 21.816C16.5413 22.9253 16.84 24.2053 16.84 25.656C16.84 27.448 16.072 29.0267 14.536 30.392C13.0853 31.7573 11.3787 32.44 9.416 32.44C6.42933 32.44 4.168 31.544 2.632 29.752C1.18133 27.8747 0.456 25.2293 0.456 21.816C0.456 17.5493 1.90667 13.5387 4.808 9.784C7.70933 5.944 10.952 2.78666 14.536 0.311996L16.968 1.71999ZM38.216 1.71999C35.9973 3.768 33.9493 6.24267 32.072 9.144C30.28 12.0453 29.384 14.4773 29.384 16.44C29.384 18.9147 30.92 20.152 33.992 20.152C35.528 20.152 36.5947 20.7067 37.192 21.816C37.7893 22.9253 38.088 24.2053 38.088 25.656C38.088 27.448 37.32 29.0267 35.784 30.392C34.3333 31.7573 32.6267 32.44 30.664 32.44C27.6773 32.44 25.416 31.544 23.88 29.752C22.4293 27.8747 21.704 25.2293 21.704 21.816C21.704 17.5493 23.1547 13.5387 26.056 9.784C28.9573 5.944 32.2 2.78666 35.784 0.311996L38.216 1.71999Z" fill="#4D202F"/>
</svg>
