<svg width="147" height="96" viewBox="0 0 147 96" fill="none" xmlns="http://www.w3.org/2000/svg">
<path d="M9.04603 84.5275L10.421 79.396L24.4705 83.1605L30.6895 59.9508C23.8205 56.8976 19.0377 52.1786 16.3409 45.7938C13.6441 39.4091 13.2389 32.6969 15.1251 25.6574L22 0L73.1941 13.7174L66.3192 39.3748C64.433 46.4144 60.7259 52.0246 55.1981 56.2056C49.6702 60.3865 43.1686 62.0819 35.6933 61.2916L29.4743 84.5013L43.5238 88.2659L42.1488 93.3973L9.04603 84.5275ZM34.5348 55.6078C39.7821 57.0138 44.8804 56.2574 49.8296 53.3385C54.778 50.4194 58.3195 46.1576 60.454 40.5532L19.6153 29.6105C18.6617 35.5314 19.5978 40.9929 22.4237 45.9951C25.2504 50.9975 29.2874 54.2018 34.5348 55.6078ZM20.8164 24.4324L62.0029 35.4683L66.8153 17.5081L25.6288 6.47225L20.8164 24.4324Z" fill="#4D202F"/>
<path d="M137.246 84.5275L135.871 79.396L121.822 83.1605L115.602 59.9508C122.471 56.8976 127.254 52.1786 129.951 45.7938C132.648 39.4091 133.053 32.6969 131.167 25.6574L124.292 0L73.0979 13.7174L79.9728 39.3748C81.859 46.4144 85.5661 52.0246 91.0939 56.2056C96.6218 60.3865 103.123 62.0819 110.599 61.2916L116.818 84.5013L102.768 88.2659L104.143 93.3973L137.246 84.5275ZM111.757 55.6078C106.51 57.0138 101.412 56.2574 96.4624 53.3385C91.514 50.4194 87.9725 46.1576 85.838 40.5532L126.677 29.6105C127.63 35.5314 126.694 40.9929 123.868 45.9951C121.042 50.9975 117.005 54.2018 111.757 55.6078ZM125.476 24.4324L84.2891 35.4683L79.4767 17.5081L120.663 6.47225L125.476 24.4324Z" fill="#4D202F"/>
</svg>
