<svg width="84" height="94" viewBox="0 0 84 94" fill="none" xmlns="http://www.w3.org/2000/svg">
<path d="M39.375 87.717V48.5123L5.25 28.646V66.023C5.25 66.565 5.38475 67.0726 5.65425 67.5459C5.92287 68.0201 6.32669 68.4261 6.86569 68.764L39.375 87.717ZM44.625 87.717L77.1343 68.764C77.6733 68.4261 78.0771 68.0201 78.3457 67.5459C78.6152 67.0726 78.75 66.565 78.75 66.023V28.646L44.625 48.5123V87.717ZM37.7593 92.8532L4.24069 73.4343C2.91419 72.6698 1.876 71.6307 1.12613 70.3172C0.375375 69.0046 0 67.5833 0 66.0534V27.9466C0 26.4167 0.375375 24.9954 1.12613 23.6828C1.876 22.3693 2.91419 21.3302 4.24069 20.5657L37.7593 1.14679C39.0858 0.382264 40.4994 0 42 0C43.5006 0 44.9142 0.382264 46.2407 1.14679L79.7593 20.5657C81.0858 21.3302 82.124 22.3693 82.8739 23.6828C83.6246 24.9954 84 26.4167 84 27.9466V66.0534C84 67.5833 83.6246 69.0046 82.8739 70.3172C82.124 71.6307 81.0858 72.6698 79.7593 73.4343L46.2407 92.8532C44.9142 93.6177 43.5006 94 42 94C40.4994 94 39.0858 93.6177 37.7593 92.8532ZM61.4854 32.6156L75.7312 24.373L43.6157 5.68381C43.0767 5.34598 42.5381 5.17707 42 5.17707C41.4619 5.17707 40.9233 5.34598 40.3843 5.68381L27.825 12.942L61.4854 32.6156ZM42 43.9753L56.175 35.701L22.4437 16.1L8.26875 24.373L42 43.9753Z" fill="#4D202F"/>
</svg>
