<svg width="39" height="39" viewBox="0 0 39 39" fill="none" xmlns="http://www.w3.org/2000/svg">
<path d="M7.23142 30.363C8.97616 29.0685 10.8769 28.0461 12.9336 27.2959C14.99 26.546 17.1788 26.1711 19.5 26.1711C21.8212 26.1711 24.01 26.546 26.0664 27.2959C28.1231 28.0461 30.0238 29.0685 31.7686 30.363C33.0446 28.9604 34.0557 27.3368 34.8019 25.4921C35.548 23.6475 35.9211 21.6501 35.9211 19.5C35.9211 14.95 34.3217 11.0757 31.123 7.87697C27.9243 4.67829 24.05 3.07895 19.5 3.07895C14.95 3.07895 11.0757 4.67829 7.87697 7.87697C4.67829 11.0757 3.07895 14.95 3.07895 19.5C3.07895 21.6501 3.45201 23.6475 4.19814 25.4921C4.94428 27.3368 5.95537 28.9604 7.23142 30.363ZM19.5005 21.0395C17.6265 21.0395 16.0461 20.3963 14.7594 19.11C13.4724 17.8233 12.8289 16.243 12.8289 14.3689C12.8289 12.4949 13.4721 10.9145 14.7584 9.62787C16.0451 8.34087 17.6254 7.69737 19.4995 7.69737C21.3735 7.69737 22.9539 8.34052 24.2406 9.62684C25.5276 10.9135 26.1711 12.4939 26.1711 14.3679C26.1711 16.242 25.5279 17.8223 24.2416 19.109C22.9549 20.396 21.3746 21.0395 19.5005 21.0395ZM19.5 39C16.7922 39 14.2521 38.4908 11.8796 37.4723C9.5071 36.4539 7.44336 35.067 5.68836 33.3116C3.93301 31.5566 2.54612 29.4929 1.52767 27.1204C0.509224 24.7479 0 22.2078 0 19.5C0 16.7922 0.509224 14.2521 1.52767 11.8796C2.54612 9.5071 3.93301 7.44335 5.68836 5.68835C7.44336 3.93301 9.5071 2.54612 11.8796 1.52767C14.2521 0.509225 16.7922 0 19.5 0C22.2078 0 24.7479 0.509225 27.1204 1.52767C29.4929 2.54612 31.5566 3.93301 33.3116 5.68835C35.067 7.44335 36.4539 9.5071 37.4723 11.8796C38.4908 14.2521 39 16.7922 39 19.5C39 22.2078 38.4908 24.7479 37.4723 27.1204C36.4539 29.4929 35.067 31.5566 33.3116 33.3116C31.5566 35.067 29.4929 36.4539 27.1204 37.4723C24.7479 38.4908 22.2078 39 19.5 39ZM19.5 35.9211C21.3525 35.9211 23.1386 35.6231 24.8584 35.0271C26.5782 34.4308 28.1051 33.5973 29.4394 32.5265C28.1051 31.4947 26.598 30.6908 24.9179 30.1147C23.2375 29.5382 21.4315 29.25 19.5 29.25C17.5685 29.25 15.7593 29.5348 14.0723 30.1044C12.3854 30.6744 10.8815 31.4817 9.56064 32.5265C10.8949 33.5973 12.4218 34.4308 14.1416 35.0271C15.8614 35.6231 17.6475 35.9211 19.5 35.9211ZM19.5 17.9605C20.5212 17.9605 21.3751 17.6171 22.0617 16.9301C22.7486 16.2435 23.0921 15.3896 23.0921 14.3684C23.0921 13.3472 22.7486 12.4933 22.0617 11.8067C21.3751 11.1198 20.5212 10.7763 19.5 10.7763C18.4788 10.7763 17.6249 11.1198 16.9383 11.8067C16.2514 12.4933 15.9079 13.3472 15.9079 14.3684C15.9079 15.3896 16.2514 16.2435 16.9383 16.9301C17.6249 17.6171 18.4788 17.9605 19.5 17.9605Z" fill="#643D4A"/>
</svg>
