<svg width="31" height="39" viewBox="0 0 31 39" fill="none" xmlns="http://www.w3.org/2000/svg">
<path d="M3.73602 39C2.69201 39 1.80833 38.6408 1.085 37.9224C0.361667 37.2039 0 36.3263 0 35.2894V11.9212C0 10.8842 0.361667 10.0066 1.085 9.28816C1.80833 8.56974 2.69201 8.21053 3.73602 8.21053H7.75V7.69737C7.75 5.57118 8.5064 3.75666 10.0192 2.25379C11.5323 0.751262 13.3593 0 15.5 0C17.6407 0 19.4677 0.751262 20.9808 2.25379C22.4936 3.75666 23.25 5.57118 23.25 7.69737V8.21053H27.264C28.308 8.21053 29.1917 8.56974 29.915 9.28816C30.6383 10.0066 31 10.8842 31 11.9212V35.2894C31 36.3263 30.6383 37.2039 29.915 37.9224C29.1917 38.6408 28.308 39 27.264 39H3.73602ZM3.73602 35.9211H27.264C27.4231 35.9211 27.5688 35.8552 27.7011 35.7235C27.8337 35.5921 27.9 35.4474 27.9 35.2894V11.9212C27.9 11.7631 27.8337 11.6184 27.7011 11.487C27.5688 11.3553 27.4231 11.2895 27.264 11.2895H23.25V15.9079C23.25 16.3448 23.1015 16.7105 22.8046 17.005C22.5081 17.2999 22.1399 17.4474 21.7 17.4474C21.2601 17.4474 20.8919 17.2999 20.5954 17.005C20.2985 16.7105 20.15 16.3448 20.15 15.9079V11.2895H10.85V15.9079C10.85 16.3448 10.7015 16.7105 10.4046 17.005C10.1081 17.2999 9.73986 17.4474 9.3 17.4474C8.86014 17.4474 8.49193 17.2999 8.19537 17.005C7.89846 16.7105 7.75 16.3448 7.75 15.9079V11.2895H3.73602C3.57688 11.2895 3.43118 11.3553 3.29892 11.487C3.16631 11.6184 3.1 11.7631 3.1 11.9212V35.2894C3.1 35.4474 3.16631 35.5921 3.29892 35.7235C3.43118 35.8552 3.57688 35.9211 3.73602 35.9211ZM10.85 8.21053H20.15V7.69737C20.15 6.41071 19.6989 5.31922 18.7969 4.42291C17.8947 3.52693 16.7958 3.07895 15.5 3.07895C14.2042 3.07895 13.1052 3.52693 12.2031 4.42291C11.3011 5.31922 10.85 6.41071 10.85 7.69737V8.21053Z" fill="#643D4A"/>
</svg>
