<svg width="21" height="21" viewBox="0 0 21 21" fill="none" xmlns="http://www.w3.org/2000/svg">
<path d="M18.9851 20.1491L11.9193 13.083C11.3568 13.5474 10.7099 13.9109 9.97865 14.1734C9.2474 14.4359 8.49093 14.5671 7.70925 14.5671C5.78643 14.5671 4.15912 13.9014 2.82731 12.57C1.4955 11.2386 0.82959 9.61161 0.82959 7.68917C0.82959 5.76692 1.49531 4.13942 2.82675 2.80667C4.15818 1.47411 5.78512 0.807831 7.70756 0.807831C9.62981 0.807831 11.2573 1.47374 12.5901 2.80555C13.9226 4.13736 14.5889 5.76467 14.5889 7.68749C14.5889 8.49092 14.4541 9.25827 14.1845 9.98952C13.9147 10.7208 13.5547 11.3568 13.1047 11.8975L20.1706 18.9634L18.9851 20.1491ZM7.70925 12.8799C9.15881 12.8799 10.3866 12.3769 11.3925 11.3707C12.3986 10.3648 12.9017 9.13705 12.9017 7.68749C12.9017 6.23792 12.3986 5.01017 11.3925 4.00424C10.3866 2.99811 9.15881 2.49505 7.70925 2.49505C6.25968 2.49505 5.03193 2.99811 4.026 4.00424C3.01987 5.01017 2.51681 6.23792 2.51681 7.68749C2.51681 9.13705 3.01987 10.3648 4.026 11.3707C5.03193 12.3769 6.25968 12.8799 7.70925 12.8799Z" fill="#643D4A"/>
</svg>
