<svg width="53" height="85" viewBox="0 0 53 85" fill="none" xmlns="http://www.w3.org/2000/svg">
<path d="M9.36475 85V79.6875H23.9098V55.6591C16.4847 54.4877 10.6434 51.1673 6.38606 45.6981C2.12869 40.2289 0 33.8504 0 26.5625V0H53V26.5625C53 33.8504 50.8713 40.2289 46.6139 45.6981C42.3566 51.1673 36.5153 54.4877 29.0902 55.6591V79.6875H43.6353V85H9.36475ZM26.5 50.4688C31.9324 50.4688 36.6612 48.4186 40.6863 44.3182C44.7106 40.2178 47.0284 35.1847 47.6396 29.2188H5.36035C5.97163 35.1847 8.2894 40.2178 12.3137 44.3182C16.3388 48.4186 21.0676 50.4688 26.5 50.4688ZM5.18033 23.9062H47.8197V5.3125H5.18033V23.9062Z" fill="#4D202F"/>
</svg>
